<?xml version="1.0" encoding="UTF-8" standalone="no"?>
<!-- Created with Inkscape (http://www.inkscape.org/) -->

<svg
   width="210mm"
   height="297mm"
   viewBox="0 0 210 297"
   version="1.1"
   id="svg5"
   xml:space="preserve"
   inkscape:version="1.2.2 (732a01da63, 2022-12-09)"
   sodipodi:docname="TechquizV2.svg"
   xmlns:inkscape="http://www.inkscape.org/namespaces/inkscape"
   xmlns:sodipodi="http://sodipodi.sourceforge.net/DTD/sodipodi-0.dtd"
   xmlns="http://www.w3.org/2000/svg"
   xmlns:svg="http://www.w3.org/2000/svg"><sodipodi:namedview
     id="namedview7"
     pagecolor="#ffffff"
     bordercolor="#000000"
     borderopacity="0.25"
     inkscape:showpageshadow="2"
     inkscape:pageopacity="0.0"
     inkscape:pagecheckerboard="0"
     inkscape:deskcolor="#d1d1d1"
     inkscape:document-units="mm"
     showgrid="false"
     inkscape:zoom="0.77682379"
     inkscape:cx="199.53045"
     inkscape:cy="717.02232"
     inkscape:window-width="1920"
     inkscape:window-height="1027"
     inkscape:window-x="1072"
     inkscape:window-y="594"
     inkscape:window-maximized="1"
     inkscape:current-layer="layer1" /><defs
     id="defs2" /><g
     inkscape:label="Layer 1"
     inkscape:groupmode="layer"
     id="layer1"><path
       style="fill:#ffffff;stroke:none;stroke-width:0.40839"
       d="m 33.498585,68.127265 v 7.75942 h 24.503439 v 33.079645 h 7.759422 V 90.588745 h 15.927239 l 6.681683,-0.66445 3.283044,-6.27819 5.962509,-15.51884 H 33.498585 M 150.29831,169.81653 v -9.39297 l 15.11045,-1.63357 c -2.28126,-3.70574 -6.68413,-8.79877 -10.61816,-10.7709 -2.49486,-1.25048 -5.8702,-0.87721 -8.5762,-1.62988 -6.40152,-1.7814 -12.24478,-5.80364 -16.02647,-11.28588 -3.22547,-4.67526 -5.21883,-10.61774 -5.15022,-16.33562 0.23605,-19.617465 21.73006,-33.301405 39.55427,-25.510135 8.68156,3.79477 14.97854,12.172495 16.68685,21.426215 0.58726,3.18178 -0.69835,7.29713 0.46678,10.20978 0.96666,2.41563 3.51338,4.33097 5.30785,6.12586 3.85929,3.85969 7.57034,8.02855 11.84334,11.43493 4.66791,-11.05799 6.64859,-22.4182 4.157,-34.30481 -1.48286,-7.07374 -4.67851,-13.811365 -8.97846,-19.602765 -3.96303,-5.33725 -9.06709,-9.82464 -14.7813,-13.20938 -19.53005,-11.566855 -46.05299,-8.25357 -62.03821,7.924 -10.73373,10.86278 -15.8329,26.127605 -14.3492,41.223765 0.58603,5.96292 2.14241,11.78371 4.82757,17.15241 3.61752,7.23259 9.12917,13.71621 15.61033,18.54951 7.81781,5.83018 17.23653,9.09282 26.95378,9.62944 M 5.3196253,74.253125 v 22.0531 H 28.189505 c 2.23096,0 6.77561,-0.84048 8.50453,0.88823 1.23673,1.23703 0.88674,3.654305 0.88829,5.237615 l 1.6e-4,13.8853 v 55.13274 H 59.635586 V 115.09219 H 51.876164 V 82.012545 H 27.372725 v -7.75942 H 5.3196253 m 144.1619047,58.808245 9.80137,10.61817 17.15241,17.1524 c -6.53139,2.89468 -12.82918,5.14818 -20.01113,5.71748 v 6.94263 c 5.76197,-0.0241 11.3757,-1.29215 16.744,-3.36105 2.29025,-0.88295 6.10219,-3.66204 8.57621,-3.03027 1.46898,0.37533 2.6333,1.7075 3.67551,2.72479 2.06482,2.01501 4.08594,4.07697 6.12586,6.11687 h 0.40839 L 207.473,160.42356 197.26322,149.8054 180.9276,133.46977 l -6.12586,-6.11075 -4.0839,-2.68966 -6.53425,2.15059 z"
       id="path294" /></g></svg>
